<mxfile host="Electron" agent="Mozilla/5.0 (Windows NT 10.0; Win64; x64) AppleWebKit/537.36 (KHTML, like Gecko) draw.io/24.7.8 Chrome/128.0.6613.36 Electron/32.0.1 Safari/537.36" version="24.7.8">
  <diagram name="Page-1" id="OP1rmft6pIBWygRowUWi">
    <mxGraphModel dx="1050" dy="673" grid="1" gridSize="10" guides="1" tooltips="1" connect="1" arrows="1" fold="1" page="1" pageScale="1" pageWidth="850" pageHeight="1100" math="0" shadow="0">
      <root>
        <mxCell id="0" />
        <mxCell id="1" parent="0" />
        <mxCell id="p7k5y9ONhqJHMqV0naau-1" value="" style="whiteSpace=wrap;html=1;aspect=fixed;" parent="1" vertex="1">
          <mxGeometry x="185" y="80" width="480" height="480" as="geometry" />
        </mxCell>
        <mxCell id="p7k5y9ONhqJHMqV0naau-18" style="rounded=0;orthogonalLoop=1;jettySize=auto;html=1;exitX=0.5;exitY=0.5;exitDx=0;exitDy=0;exitPerimeter=0;endArrow=none;endFill=0;" parent="1" source="p7k5y9ONhqJHMqV0naau-2" target="p7k5y9ONhqJHMqV0naau-9" edge="1">
          <mxGeometry relative="1" as="geometry" />
        </mxCell>
        <mxCell id="p7k5y9ONhqJHMqV0naau-2" value="Employee" style="shape=umlActor;verticalLabelPosition=bottom;verticalAlign=top;html=1;outlineConnect=0;" parent="1" vertex="1">
          <mxGeometry x="90" y="160" width="30" height="60" as="geometry" />
        </mxCell>
        <mxCell id="p7k5y9ONhqJHMqV0naau-3" value="Admin" style="shape=umlActor;verticalLabelPosition=bottom;verticalAlign=top;html=1;outlineConnect=0;" parent="1" vertex="1">
          <mxGeometry x="90" y="350" width="30" height="60" as="geometry" />
        </mxCell>
        <mxCell id="p7k5y9ONhqJHMqV0naau-7" value="View Attendance Records" style="ellipse;whiteSpace=wrap;html=1;" parent="1" vertex="1">
          <mxGeometry x="210" y="330" width="120" height="80" as="geometry" />
        </mxCell>
        <mxCell id="p7k5y9ONhqJHMqV0naau-9" value="Clock In/Out" style="ellipse;whiteSpace=wrap;html=1;" parent="1" vertex="1">
          <mxGeometry x="210" y="150" width="120" height="80" as="geometry" />
        </mxCell>
        <mxCell id="p7k5y9ONhqJHMqV0naau-13" value="Receive Notifications" style="ellipse;whiteSpace=wrap;html=1;" parent="1" vertex="1">
          <mxGeometry x="210" y="240" width="120" height="80" as="geometry" />
        </mxCell>
        <mxCell id="p7k5y9ONhqJHMqV0naau-14" value="Manage Employee Information" style="ellipse;whiteSpace=wrap;html=1;" parent="1" vertex="1">
          <mxGeometry x="365" y="450" width="120" height="70" as="geometry" />
        </mxCell>
        <mxCell id="p7k5y9ONhqJHMqV0naau-15" value="Generate Reports" style="ellipse;whiteSpace=wrap;html=1;" parent="1" vertex="1">
          <mxGeometry x="220" y="450" width="120" height="80" as="geometry" />
        </mxCell>
        <mxCell id="p7k5y9ONhqJHMqV0naau-16" value="Database" style="rounded=0;whiteSpace=wrap;html=1;" parent="1" vertex="1">
          <mxGeometry x="700" y="260" width="120" height="60" as="geometry" />
        </mxCell>
        <mxCell id="p7k5y9ONhqJHMqV0naau-19" style="rounded=0;orthogonalLoop=1;jettySize=auto;html=1;exitX=0.5;exitY=0.5;exitDx=0;exitDy=0;exitPerimeter=0;endArrow=none;endFill=0;" parent="1" source="p7k5y9ONhqJHMqV0naau-2" target="p7k5y9ONhqJHMqV0naau-13" edge="1">
          <mxGeometry relative="1" as="geometry">
            <mxPoint x="115" y="200" as="sourcePoint" />
            <mxPoint x="225" y="167" as="targetPoint" />
          </mxGeometry>
        </mxCell>
        <mxCell id="p7k5y9ONhqJHMqV0naau-20" style="rounded=0;orthogonalLoop=1;jettySize=auto;html=1;exitX=0.5;exitY=0.5;exitDx=0;exitDy=0;exitPerimeter=0;endArrow=none;endFill=0;" parent="1" source="p7k5y9ONhqJHMqV0naau-3" target="p7k5y9ONhqJHMqV0naau-15" edge="1">
          <mxGeometry relative="1" as="geometry">
            <mxPoint x="104" y="394" as="sourcePoint" />
            <mxPoint x="220" y="450" as="targetPoint" />
          </mxGeometry>
        </mxCell>
        <mxCell id="p7k5y9ONhqJHMqV0naau-21" style="rounded=0;orthogonalLoop=1;jettySize=auto;html=1;exitX=0.5;exitY=0.5;exitDx=0;exitDy=0;exitPerimeter=0;endArrow=none;endFill=0;" parent="1" source="p7k5y9ONhqJHMqV0naau-3" target="p7k5y9ONhqJHMqV0naau-14" edge="1">
          <mxGeometry relative="1" as="geometry">
            <mxPoint x="114" y="404" as="sourcePoint" />
            <mxPoint x="244" y="475" as="targetPoint" />
          </mxGeometry>
        </mxCell>
        <mxCell id="p7k5y9ONhqJHMqV0naau-22" style="rounded=0;orthogonalLoop=1;jettySize=auto;html=1;exitX=0.5;exitY=0.5;exitDx=0;exitDy=0;exitPerimeter=0;endArrow=none;endFill=0;" parent="1" source="p7k5y9ONhqJHMqV0naau-3" target="p7k5y9ONhqJHMqV0naau-7" edge="1">
          <mxGeometry relative="1" as="geometry">
            <mxPoint x="124" y="414" as="sourcePoint" />
            <mxPoint x="254" y="485" as="targetPoint" />
          </mxGeometry>
        </mxCell>
        <mxCell id="p7k5y9ONhqJHMqV0naau-23" value="" style="endArrow=none;html=1;rounded=0;entryX=0;entryY=0.5;entryDx=0;entryDy=0;exitX=1.013;exitY=0.615;exitDx=0;exitDy=0;exitPerimeter=0;" parent="1" source="p7k5y9ONhqJHMqV0naau-24" target="p7k5y9ONhqJHMqV0naau-16" edge="1">
          <mxGeometry width="50" height="50" relative="1" as="geometry">
            <mxPoint x="400" y="280" as="sourcePoint" />
            <mxPoint x="450" y="230" as="targetPoint" />
          </mxGeometry>
        </mxCell>
        <mxCell id="p7k5y9ONhqJHMqV0naau-24" value="Authenticate" style="ellipse;whiteSpace=wrap;html=1;" parent="1" vertex="1">
          <mxGeometry x="400" y="210" width="120" height="80" as="geometry" />
        </mxCell>
        <mxCell id="p7k5y9ONhqJHMqV0naau-26" value="" style="endArrow=classic;html=1;rounded=0;entryX=0.01;entryY=0.415;entryDx=0;entryDy=0;entryPerimeter=0;strokeColor=default;dashed=1;" parent="1" source="p7k5y9ONhqJHMqV0naau-9" target="p7k5y9ONhqJHMqV0naau-24" edge="1">
          <mxGeometry width="50" height="50" relative="1" as="geometry">
            <mxPoint x="400" y="280" as="sourcePoint" />
            <mxPoint x="450" y="230" as="targetPoint" />
          </mxGeometry>
        </mxCell>
        <mxCell id="p7k5y9ONhqJHMqV0naau-27" value="include" style="edgeLabel;html=1;align=center;verticalAlign=middle;resizable=0;points=[];" parent="p7k5y9ONhqJHMqV0naau-26" vertex="1" connectable="0">
          <mxGeometry x="-0.3304" y="-4" relative="1" as="geometry">
            <mxPoint x="8" y="-18" as="offset" />
          </mxGeometry>
        </mxCell>
        <mxCell id="K1xdwABqs95pF0voadSH-1" value="&lt;h1 style=&quot;margin-top: 0px;&quot;&gt;&lt;font style=&quot;font-size: 18px;&quot;&gt;Biometric Attendance system&lt;/font&gt;&lt;/h1&gt;" style="text;html=1;whiteSpace=wrap;overflow=hidden;rounded=0;align=center;" vertex="1" parent="1">
          <mxGeometry x="280" y="90" width="320" height="40" as="geometry" />
        </mxCell>
      </root>
    </mxGraphModel>
  </diagram>
</mxfile>
